<svg xmlns="http://www.w3.org/2000/svg" xmlns:xlink="http://www.w3.org/1999/xlink" width="55" height="55" viewBox="0 0 320 320">
  <defs>
    <polygon id="initials_light@2x-a" points="0 .449 92.498 .449 92.498 182 0 182"/>
    <polygon id="initials_light@2x-c" points=".206 .033 58.348 .033 58.348 168.808 .206 168.808"/>
  </defs>
  <g fill="none" fill-rule="evenodd">
    <circle cx="160" cy="160" r="155" stroke="#FFF" stroke-width="10"/>
    <g transform="translate(80 57)">
      <g transform="translate(0 23.968)">
        <mask id="initials_light@2x-b" fill="#fff">
          <use xlink:href="#initials_light@2x-a"/>
        </mask>
        <path fill="#FFF" d="M77.4668,154.8506 L53.3518,165.3366 L46.9098,119.3656 C46.7448,117.8886 46.2498,106.6846 46.2498,106.6846 C46.2498,106.6846 45.7538,118.3196 45.5888,119.9406 L39.1468,171.5136 L15.0308,181.9996 L-0.0002,40.6696 L24.7768,29.8966 L30.2268,91.5886 C30.3928,93.4526 30.7228,109.1786 30.7228,109.1786 C30.7228,109.1786 31.0538,93.1646 31.2178,91.1576 L36.8348,24.6536 L55.6648,16.4646 L61.2798,78.0856 C61.4458,79.9496 61.7758,95.8696 61.7758,95.8696 C61.7758,95.8696 62.1058,79.6626 62.2708,77.6546 L67.7218,11.2216 L92.4978,0.4486 L77.4668,154.8506 Z" mask="url(#initials_light@2x-b)"/>
      </g>
      <g transform="translate(88 .968)">
        <mask id="initials_light@2x-d" fill="#fff">
          <use xlink:href="#initials_light@2x-c"/>
        </mask>
        <path fill="#FFF" d="M44.1421,154.0757 L14.4111,167.0037 C4.5001,171.3137 0.2061,167.9547 0.2061,156.3427 L0.2061,122.8597 L24.4861,112.3017 L24.4861,137.2687 L34.2321,133.0307 L34.2321,10.5187 L58.3481,0.0327 L58.3481,131.0607 C58.3481,142.6727 54.0521,149.7667 44.1421,154.0757" mask="url(#initials_light@2x-d)"/>
      </g>
    </g>
  </g>
</svg>
